<svg width="1920" height="960" viewBox="0 0 1920 960" fill="none" xmlns="http://www.w3.org/2000/svg">
<g clip-path="url(#clip0_1946_78368)">
<path d="M1491.55 782.752H1518V818H1491.55V782.752Z" fill="#D53636"/>
<path d="M1705.05 675.855H1731.28V711.5H1705.05V675.855Z" fill="#262626"/>
<path d="M1758 249H1784.5V285H1758V249Z" fill="#666666"/>
<path d="M1225 0H1252V36H1225V0Z" fill="#B3B3B3"/>
<path fill-rule="evenodd" clip-rule="evenodd" d="M0 960L7.7086e-05 0L0.728729 1.7338e-08L0.728652 960H0Z" fill="#F2F2F2"/>
<path fill-rule="evenodd" clip-rule="evenodd" d="M266.297 960V0L267.026 6.45982e-08V960H266.297Z" fill="#F2F2F2"/>
<path fill-rule="evenodd" clip-rule="evenodd" d="M532.594 960V0L533.323 6.45982e-08V960H532.594Z" fill="#F2F2F2"/>
<path fill-rule="evenodd" clip-rule="evenodd" d="M798.891 960V0L799.62 6.45982e-08V960H798.891Z" fill="#F2F2F2"/>
<path fill-rule="evenodd" clip-rule="evenodd" d="M1065.19 960V0L1065.92 6.45982e-08V960H1065.19Z" fill="#F2F2F2"/>
<path fill-rule="evenodd" clip-rule="evenodd" d="M1331.48 960V0L1332.21 6.45982e-08V960H1331.48Z" fill="#F2F2F2"/>
<path fill-rule="evenodd" clip-rule="evenodd" d="M1597.78 960V0L1598.51 6.45982e-08V960H1597.78Z" fill="#F2F2F2"/>
<path fill-rule="evenodd" clip-rule="evenodd" d="M26.6309 960V0L27.3596 6.45982e-08V960H26.6309Z" fill="#F2F2F2"/>
<path fill-rule="evenodd" clip-rule="evenodd" d="M292.928 960V0L293.657 6.45982e-08V960H292.928Z" fill="#F2F2F2"/>
<path fill-rule="evenodd" clip-rule="evenodd" d="M559.225 960V0L559.954 6.45982e-08V960H559.225Z" fill="#F2F2F2"/>
<path fill-rule="evenodd" clip-rule="evenodd" d="M825.52 960V0L826.247 6.45982e-08V960H825.52Z" fill="#F2F2F2"/>
<path fill-rule="evenodd" clip-rule="evenodd" d="M1091.82 960V0L1092.55 6.45982e-08V960H1091.82Z" fill="#F2F2F2"/>
<path fill-rule="evenodd" clip-rule="evenodd" d="M1358.11 960V0L1358.84 6.45982e-08V960H1358.11Z" fill="#F2F2F2"/>
<path fill-rule="evenodd" clip-rule="evenodd" d="M1624.41 960V0L1625.14 6.45982e-08V960H1624.41Z" fill="#F2F2F2"/>
<path fill-rule="evenodd" clip-rule="evenodd" d="M53.2598 960V0L53.9885 6.45982e-08L53.9884 960H53.2598Z" fill="#F2F2F2"/>
<path fill-rule="evenodd" clip-rule="evenodd" d="M319.557 960V0L320.285 6.45982e-08V960H319.557Z" fill="#F2F2F2"/>
<path fill-rule="evenodd" clip-rule="evenodd" d="M585.854 960V0L586.583 6.45982e-08V960H585.854Z" fill="#F2F2F2"/>
<path fill-rule="evenodd" clip-rule="evenodd" d="M852.15 960V0L852.878 6.45982e-08V960H852.15Z" fill="#F2F2F2"/>
<path fill-rule="evenodd" clip-rule="evenodd" d="M1118.45 960V0L1119.18 6.45982e-08V960H1118.45Z" fill="#F2F2F2"/>
<path fill-rule="evenodd" clip-rule="evenodd" d="M1384.74 960V0L1385.47 6.45982e-08V960H1384.74Z" fill="#F2F2F2"/>
<path fill-rule="evenodd" clip-rule="evenodd" d="M1651.04 960V0L1651.77 6.45982e-08V960H1651.04Z" fill="#F2F2F2"/>
<path fill-rule="evenodd" clip-rule="evenodd" d="M79.8906 960V0L80.6192 6.45982e-08V960H79.8906Z" fill="#F2F2F2"/>
<path fill-rule="evenodd" clip-rule="evenodd" d="M346.186 960V0L346.914 6.45982e-08V960H346.186Z" fill="#F2F2F2"/>
<path fill-rule="evenodd" clip-rule="evenodd" d="M612.482 960V0L613.21 6.45982e-08V960H612.482Z" fill="#F2F2F2"/>
<path fill-rule="evenodd" clip-rule="evenodd" d="M878.779 960V0L879.508 6.45982e-08V960H878.779Z" fill="#F2F2F2"/>
<path fill-rule="evenodd" clip-rule="evenodd" d="M1145.08 960V0L1145.8 6.45982e-08V960H1145.08Z" fill="#F2F2F2"/>
<path fill-rule="evenodd" clip-rule="evenodd" d="M1411.37 960V0L1412.1 6.45982e-08V960H1411.37Z" fill="#F2F2F2"/>
<path fill-rule="evenodd" clip-rule="evenodd" d="M1677.67 960V0L1678.4 6.45982e-08V960H1677.67Z" fill="#F2F2F2"/>
<path fill-rule="evenodd" clip-rule="evenodd" d="M106.52 960V0L107.248 6.45982e-08V960H106.52Z" fill="#F2F2F2"/>
<path fill-rule="evenodd" clip-rule="evenodd" d="M372.816 960V0L373.544 6.45982e-08V960H372.816Z" fill="#F2F2F2"/>
<path fill-rule="evenodd" clip-rule="evenodd" d="M639.113 960V0L639.841 6.45982e-08V960H639.113Z" fill="#F2F2F2"/>
<path fill-rule="evenodd" clip-rule="evenodd" d="M905.408 960V0L906.137 6.45982e-08V960H905.408Z" fill="#F2F2F2"/>
<path fill-rule="evenodd" clip-rule="evenodd" d="M1171.71 960V0L1172.43 6.45982e-08V960H1171.71Z" fill="#F2F2F2"/>
<path fill-rule="evenodd" clip-rule="evenodd" d="M1438 960V0L1438.73 6.45982e-08V960H1438Z" fill="#F2F2F2"/>
<path fill-rule="evenodd" clip-rule="evenodd" d="M1704.3 960V0L1705.03 6.45982e-08V960H1704.3Z" fill="#F2F2F2"/>
<path fill-rule="evenodd" clip-rule="evenodd" d="M133.148 960V0L133.876 6.45982e-08V960H133.148Z" fill="#F2F2F2"/>
<path fill-rule="evenodd" clip-rule="evenodd" d="M399.445 960V0L400.173 6.45982e-08V960H399.445Z" fill="#F2F2F2"/>
<path fill-rule="evenodd" clip-rule="evenodd" d="M665.742 960V0L666.47 6.45982e-08V960H665.742Z" fill="#F2F2F2"/>
<path fill-rule="evenodd" clip-rule="evenodd" d="M932.039 960V0L932.767 6.45982e-08V960H932.039Z" fill="#F2F2F2"/>
<path fill-rule="evenodd" clip-rule="evenodd" d="M1198.33 960V0L1199.06 6.45982e-08V960H1198.33Z" fill="#F2F2F2"/>
<path fill-rule="evenodd" clip-rule="evenodd" d="M1464.63 960V0L1465.36 6.45982e-08V960H1464.63Z" fill="#F2F2F2"/>
<path fill-rule="evenodd" clip-rule="evenodd" d="M1730.93 960V0L1731.66 6.45982e-08V960H1730.93Z" fill="#F2F2F2"/>
<path fill-rule="evenodd" clip-rule="evenodd" d="M159.777 960V0L160.506 6.45982e-08V960H159.777Z" fill="#F2F2F2"/>
<path fill-rule="evenodd" clip-rule="evenodd" d="M426.076 960V0L426.804 6.45982e-08V960H426.076Z" fill="#F2F2F2"/>
<path fill-rule="evenodd" clip-rule="evenodd" d="M692.371 960V0L693.1 6.45982e-08V960H692.371Z" fill="#F2F2F2"/>
<path fill-rule="evenodd" clip-rule="evenodd" d="M958.668 960V0L959.397 6.45982e-08V960H958.668Z" fill="#F2F2F2"/>
<path fill-rule="evenodd" clip-rule="evenodd" d="M1224.96 960V0L1225.69 6.45982e-08V960H1224.96Z" fill="#F2F2F2"/>
<path fill-rule="evenodd" clip-rule="evenodd" d="M1491.26 960V0L1491.99 6.45982e-08V960H1491.26Z" fill="#F2F2F2"/>
<path fill-rule="evenodd" clip-rule="evenodd" d="M1757.56 960V0L1758.29 6.45982e-08V960H1757.56Z" fill="#F2F2F2"/>
<path fill-rule="evenodd" clip-rule="evenodd" d="M186.408 960V0L187.136 6.45982e-08V960H186.408Z" fill="#F2F2F2"/>
<path fill-rule="evenodd" clip-rule="evenodd" d="M452.703 960V0L453.432 6.45982e-08V960H452.703Z" fill="#F2F2F2"/>
<path fill-rule="evenodd" clip-rule="evenodd" d="M719 960V0L719.729 6.45982e-08V960H719Z" fill="#F2F2F2"/>
<path fill-rule="evenodd" clip-rule="evenodd" d="M985.299 960V0L986.028 6.45982e-08V960H985.299Z" fill="#F2F2F2"/>
<path fill-rule="evenodd" clip-rule="evenodd" d="M1251.59 960V0L1252.32 6.45982e-08V960H1251.59Z" fill="#F2F2F2"/>
<path fill-rule="evenodd" clip-rule="evenodd" d="M1517.89 960V0L1518.62 6.45982e-08V960H1517.89Z" fill="#F2F2F2"/>
<path fill-rule="evenodd" clip-rule="evenodd" d="M1784.19 960V0L1784.92 6.45982e-08V960H1784.19Z" fill="#F2F2F2"/>
<path fill-rule="evenodd" clip-rule="evenodd" d="M213.037 960V0L213.766 6.45982e-08V960H213.037Z" fill="#F2F2F2"/>
<path fill-rule="evenodd" clip-rule="evenodd" d="M479.334 960V0L480.063 6.45982e-08V960H479.334Z" fill="#F2F2F2"/>
<path fill-rule="evenodd" clip-rule="evenodd" d="M745.631 960V0L746.36 6.45982e-08V960H745.631Z" fill="#F2F2F2"/>
<path fill-rule="evenodd" clip-rule="evenodd" d="M1011.93 960V0L1012.66 6.45982e-08V960H1011.93Z" fill="#F2F2F2"/>
<path fill-rule="evenodd" clip-rule="evenodd" d="M1278.22 960V0L1278.95 6.45982e-08V960H1278.22Z" fill="#F2F2F2"/>
<path fill-rule="evenodd" clip-rule="evenodd" d="M1544.52 960V0L1545.25 6.45982e-08V960H1544.52Z" fill="#F2F2F2"/>
<path fill-rule="evenodd" clip-rule="evenodd" d="M1810.82 960V0L1811.55 6.45982e-08V960H1810.82Z" fill="#F2F2F2"/>
<path fill-rule="evenodd" clip-rule="evenodd" d="M1864.08 960V0L1864.81 6.45982e-08V960H1864.08Z" fill="#F2F2F2"/>
<path fill-rule="evenodd" clip-rule="evenodd" d="M239.668 960V0L240.397 6.45982e-08V960H239.668Z" fill="#F2F2F2"/>
<path fill-rule="evenodd" clip-rule="evenodd" d="M505.965 960V0L506.694 6.45982e-08V960H505.965Z" fill="#F2F2F2"/>
<path fill-rule="evenodd" clip-rule="evenodd" d="M772.262 960V0L772.991 6.45982e-08V960H772.262Z" fill="#F2F2F2"/>
<path fill-rule="evenodd" clip-rule="evenodd" d="M1038.56 960V0L1039.29 6.45982e-08V960H1038.56Z" fill="#F2F2F2"/>
<path fill-rule="evenodd" clip-rule="evenodd" d="M1304.85 960V0L1305.58 6.45982e-08V960H1304.85Z" fill="#F2F2F2"/>
<path fill-rule="evenodd" clip-rule="evenodd" d="M1571.15 960V0L1571.88 6.45982e-08V960H1571.15Z" fill="#F2F2F2"/>
<path fill-rule="evenodd" clip-rule="evenodd" d="M1837.45 960V0L1838.18 6.45982e-08V960H1837.45Z" fill="#F2F2F2"/>
<path fill-rule="evenodd" clip-rule="evenodd" d="M1890.71 960V0L1891.44 6.45982e-08V960H1890.71Z" fill="#F2F2F2"/>
<path fill-rule="evenodd" clip-rule="evenodd" d="M0 924.445H1918.87V925.121H0V924.445Z" fill="#F2F2F2"/>
<path fill-rule="evenodd" clip-rule="evenodd" d="M0 888.889H1918.87V889.565H0V888.889Z" fill="#F2F2F2"/>
<path fill-rule="evenodd" clip-rule="evenodd" d="M0 853.332H1918.87V854.009H0V853.332Z" fill="#F2F2F2"/>
<path fill-rule="evenodd" clip-rule="evenodd" d="M0 817.777H1918.87V818.454H0V817.777Z" fill="#F2F2F2"/>
<path fill-rule="evenodd" clip-rule="evenodd" d="M0 782.223H1918.87V782.899H0V782.223Z" fill="#F2F2F2"/>
<path fill-rule="evenodd" clip-rule="evenodd" d="M0 746.668H1918.87V747.344H0V746.668Z" fill="#F2F2F2"/>
<path fill-rule="evenodd" clip-rule="evenodd" d="M0 711.111H1918.87V711.788H0V711.111Z" fill="#F2F2F2"/>
<path fill-rule="evenodd" clip-rule="evenodd" d="M0 675.557H1918.87V676.233H0V675.557Z" fill="#F2F2F2"/>
<path fill-rule="evenodd" clip-rule="evenodd" d="M0 640H1918.87V640.677H0V640Z" fill="#F2F2F2"/>
<path fill-rule="evenodd" clip-rule="evenodd" d="M0 604.443H1918.87V605.12H0V604.443Z" fill="#F2F2F2"/>
<path fill-rule="evenodd" clip-rule="evenodd" d="M0 568.889H1918.87V569.565H0V568.889Z" fill="#F2F2F2"/>
<path fill-rule="evenodd" clip-rule="evenodd" d="M0 533.332H1918.87V534.009H0V533.332Z" fill="#F2F2F2"/>
<path fill-rule="evenodd" clip-rule="evenodd" d="M0 497.777H1918.87V498.453H0V497.777Z" fill="#F2F2F2"/>
<path fill-rule="evenodd" clip-rule="evenodd" d="M0 462.223H1918.87V462.899H0V462.223Z" fill="#F2F2F2"/>
<path fill-rule="evenodd" clip-rule="evenodd" d="M0 426.668H1918.87V427.344H0V426.668Z" fill="#F2F2F2"/>
<path fill-rule="evenodd" clip-rule="evenodd" d="M0 391.111H1918.87V391.788H0V391.111Z" fill="#F2F2F2"/>
<path fill-rule="evenodd" clip-rule="evenodd" d="M0 355.557H1918.87V356.233H0V355.557Z" fill="#F2F2F2"/>
<path fill-rule="evenodd" clip-rule="evenodd" d="M0 320H1918.87V320.677H0V320Z" fill="#F2F2F2"/>
<path fill-rule="evenodd" clip-rule="evenodd" d="M0 284.443H1918.87V285.12H0V284.443Z" fill="#F2F2F2"/>
<path fill-rule="evenodd" clip-rule="evenodd" d="M0 248.889H1918.87V249.565H0V248.889Z" fill="#F2F2F2"/>
<path fill-rule="evenodd" clip-rule="evenodd" d="M0 213.332H1918.87V214.009H0V213.332Z" fill="#F2F2F2"/>
<path fill-rule="evenodd" clip-rule="evenodd" d="M0 177.777H1918.87V178.453H0V177.777Z" fill="#F2F2F2"/>
<path fill-rule="evenodd" clip-rule="evenodd" d="M0 142.223H1918.87V142.899H0V142.223Z" fill="#F2F2F2"/>
<path fill-rule="evenodd" clip-rule="evenodd" d="M0 106.668H1918.87V107.344H0V106.668Z" fill="#F2F2F2"/>
<path fill-rule="evenodd" clip-rule="evenodd" d="M0 71.1113H1918.87V71.7878H0V71.1113Z" fill="#F2F2F2"/>
<path fill-rule="evenodd" clip-rule="evenodd" d="M0 35.5547H1918.87V36.2312H0V35.5547Z" fill="#F2F2F2"/>
<path fill-rule="evenodd" clip-rule="evenodd" d="M0 0H1920V0.676533H0V0Z" fill="#F2F2F2"/>
<path d="M213.77 142.898H239.672V177.777H213.77V142.898Z" fill="#262626"/>
<path d="M27.3616 854H53.2614V888.891H27.3613L27.3616 854Z" fill="#D53636"/>
<path d="M799.332 142.748H825.564V177.928H799.332V142.748Z" fill="#E6E6E6"/>
<path d="M453.426 854H479.348V888.891H453.426V854Z" fill="#666666"/>
</g>
<defs>
<clipPath id="clip0_1946_78368">
<rect width="1920" height="960" fill="white"/>
</clipPath>
</defs>
</svg>
